<svg id="svg" version="1.1" xmlns="http://www.w3.org/2000/svg" xmlns:xlink="http://www.w3.org/1999/xlink" width="400" height="259.88950276243094" viewBox="0, 0, 400,259.88950276243094"><g id="svgg"><path id="path0" d="M193.242 73.547 C 163.976 77.072,148.840 109.352,164.939 133.909 C 177.046 152.378,202.957 156.843,220.663 143.513 C 242.229 127.276,241.276 94.790,218.795 79.884 C 211.365 74.959,201.610 72.539,193.242 73.547 M206.198 83.917 C 206.582 84.236,206.628 85.209,206.628 93.079 C 206.628 101.538,206.648 101.905,207.147 102.404 C 207.647 102.904,208.014 102.924,216.489 102.924 C 225.311 102.924,225.312 102.924,225.716 103.502 C 226.293 104.325,226.326 120.478,225.752 121.263 C 225.401 121.743,224.945 121.771,216.255 121.842 L 207.127 121.917 206.877 122.574 C 206.736 122.946,206.628 126.987,206.628 131.912 C 206.628 140.228,206.607 140.604,206.125 140.862 C 205.230 141.341,189.193 141.217,188.492 140.726 C 187.914 140.322,187.914 140.317,187.914 131.612 C 187.914 126.106,187.815 122.718,187.645 122.400 C 187.387 121.918,187.010 121.897,178.577 121.897 C 170.303 121.897,169.742 121.868,169.165 121.401 L 168.551 120.904 168.472 113.149 C 168.429 108.883,168.462 105.017,168.547 104.557 C 168.856 102.881,168.600 102.924,178.298 102.924 C 185.951 102.924,187.151 102.871,187.506 102.516 C 187.861 102.160,187.914 100.963,187.914 93.338 C 187.914 84.127,187.943 83.886,189.084 83.608 C 190.406 83.285,205.772 83.563,206.198 83.917 M117.748 185.818 C 117.254 186.741,117.388 223.134,117.887 223.633 C 118.427 224.173,190.443 224.268,190.981 223.730 C 191.432 223.278,191.432 186.078,190.981 185.627 C 190.361 185.006,118.081 185.195,117.748 185.818 M203.667 185.726 C 203.341 186.575,203.490 223.399,203.821 223.730 C 204.274 224.183,276.298 224.183,276.751 223.730 C 277.202 223.278,277.202 186.078,276.751 185.627 C 276.210 185.086,203.875 185.184,203.667 185.726 M179.905 197.859 C 186.643 201.808,184.016 212.346,176.292 212.346 C 167.931 212.346,165.400 201.219,172.943 197.618 C 174.827 196.718,178.155 196.833,179.905 197.859 M222.240 197.846 C 227.772 201.112,227.586 208.715,221.905 211.554 C 214.389 215.309,207.243 205.812,212.860 199.533 C 215.201 196.916,219.389 196.163,222.240 197.846 " stroke="none" fill="#197ee2" fill-rule="evenodd"></path><path id="path1" d="M146.518 30.857 C 146.979 30.914,147.798 30.915,148.337 30.859 C 148.877 30.803,148.499 30.756,147.498 30.755 C 146.498 30.753,146.057 30.799,146.518 30.857 M246.323 30.857 C 246.784 30.914,247.603 30.915,248.142 30.859 C 248.682 30.803,248.304 30.756,247.303 30.755 C 246.303 30.753,245.862 30.799,246.323 30.857 M143.743 31.551 C 143.393 31.750,142.954 31.854,142.768 31.783 C 142.582 31.712,142.430 31.795,142.430 31.969 C 142.430 32.147,142.255 32.217,142.027 32.130 C 141.795 32.041,141.691 32.084,141.782 32.232 C 141.874 32.381,141.581 32.490,141.081 32.493 C 140.568 32.495,140.350 32.578,140.541 32.700 C 140.761 32.840,140.601 33.055,140.021 33.397 C 139.559 33.668,138.967 34.161,138.706 34.492 C 138.444 34.822,138.119 35.024,137.984 34.941 C 137.849 34.857,137.771 34.902,137.810 35.040 C 137.850 35.178,137.635 35.508,137.334 35.774 C 137.033 36.040,136.703 36.522,136.601 36.846 C 136.498 37.170,136.320 37.376,136.203 37.304 C 136.087 37.232,135.906 37.435,135.802 37.755 C 135.698 38.075,135.591 38.395,135.566 38.467 C 135.540 38.538,135.427 39.056,135.315 39.618 C 135.165 40.371,135.050 40.542,134.876 40.268 C 134.719 40.020,134.640 40.390,134.637 41.375 C 134.635 42.209,134.502 42.935,134.333 43.040 C 134.159 43.147,134.103 43.112,134.200 42.955 C 134.292 42.806,134.105 42.599,133.785 42.495 C 133.465 42.390,133.145 42.274,133.073 42.235 C 133.002 42.197,132.682 42.080,132.362 41.976 C 132.042 41.872,131.844 41.683,131.922 41.556 C 132.000 41.429,131.758 41.326,131.384 41.326 C 131.010 41.326,130.765 41.225,130.841 41.103 C 130.917 40.981,130.660 40.932,130.272 40.994 C 129.718 41.082,129.649 41.046,129.955 40.830 C 130.238 40.629,129.400 40.553,126.885 40.550 C 124.331 40.547,123.475 40.624,123.612 40.847 C 123.739 41.053,123.622 41.101,123.238 41.001 C 122.930 40.920,122.612 40.960,122.532 41.090 C 122.452 41.220,122.130 41.327,121.817 41.330 C 121.354 41.333,121.320 41.381,121.637 41.585 C 121.943 41.783,121.877 41.838,121.332 41.841 C 120.950 41.844,120.254 42.167,119.785 42.560 C 119.315 42.953,119.026 43.120,119.142 42.931 C 119.316 42.647,119.258 42.646,118.817 42.921 C 118.523 43.105,118.336 43.309,118.401 43.374 C 118.571 43.544,117.713 44.443,117.374 44.450 C 117.043 44.456,115.660 46.334,115.660 46.776 C 115.660 46.940,115.527 46.993,115.366 46.893 C 115.186 46.782,115.122 46.852,115.201 47.072 C 115.370 47.547,114.923 48.400,114.607 48.205 C 114.469 48.120,114.360 48.460,114.360 48.978 C 114.360 49.486,114.243 49.903,114.100 49.903 C 113.928 49.903,113.840 62.595,113.840 87.459 C 113.840 108.116,113.752 125.011,113.645 125.003 C 113.538 124.996,112.982 124.507,112.411 123.916 C 111.839 123.324,111.614 123.008,111.910 123.214 C 112.206 123.419,111.902 123.060,111.234 122.417 C 109.632 120.874,107.331 118.291,107.992 118.777 C 108.506 119.155,108.506 119.152,108.022 118.585 C 107.753 118.269,107.444 118.066,107.335 118.133 C 107.126 118.263,106.707 117.498,106.788 117.135 C 106.814 117.017,106.727 116.987,106.595 117.069 C 106.462 117.151,106.111 116.806,105.814 116.303 C 105.516 115.799,105.096 115.319,104.878 115.236 C 104.661 115.152,104.483 114.961,104.483 114.810 C 104.483 114.659,104.045 114.146,103.509 113.669 C 102.973 113.192,102.534 112.655,102.534 112.476 C 102.534 112.297,102.362 112.151,102.152 112.151 C 101.942 112.151,101.649 111.910,101.502 111.615 C 101.355 111.320,100.796 110.694,100.261 110.224 C 99.725 109.754,99.340 109.283,99.406 109.177 C 99.471 109.071,99.175 108.726,98.748 108.410 C 98.321 108.094,98.042 107.722,98.128 107.583 C 98.214 107.444,98.129 107.362,97.940 107.401 C 97.751 107.440,97.625 107.326,97.661 107.147 C 97.697 106.969,97.550 106.823,97.336 106.823 C 97.122 106.823,96.942 106.735,96.938 106.628 C 96.933 106.520,96.612 106.204,96.223 105.925 C 95.545 105.438,95.533 105.438,95.906 105.913 C 96.280 106.387,96.267 106.387,95.608 105.901 C 95.230 105.622,94.986 105.286,95.066 105.154 C 95.146 105.023,95.020 104.988,94.786 105.078 C 94.538 105.173,94.271 105.081,94.145 104.856 C 94.015 104.623,93.371 104.414,92.514 104.327 C 90.968 104.169,89.868 103.752,90.083 103.405 C 90.158 103.283,88.860 103.184,87.199 103.184 C 85.253 103.184,84.237 103.276,84.340 103.444 C 84.436 103.599,84.101 103.711,83.511 103.722 C 82.769 103.736,82.649 103.790,83.031 103.940 C 83.397 104.083,83.108 104.184,82.016 104.297 C 81.177 104.383,80.408 104.588,80.307 104.751 C 80.206 104.914,80.049 105.038,79.958 105.025 C 79.436 104.956,79.260 105.034,79.406 105.270 C 79.497 105.416,79.474 105.519,79.357 105.499 C 78.804 105.403,78.493 105.558,78.493 105.928 C 78.493 106.151,78.398 106.275,78.281 106.203 C 78.165 106.131,77.727 106.299,77.307 106.576 C 76.887 106.853,76.645 107.080,76.770 107.081 C 76.895 107.082,76.852 107.257,76.676 107.470 C 76.499 107.682,76.251 107.792,76.124 107.714 C 75.997 107.636,75.890 107.783,75.885 108.042 C 75.875 108.616,75.257 109.478,75.023 109.244 C 74.930 109.151,74.845 109.182,74.834 109.313 C 74.770 110.076,74.580 110.569,74.159 111.064 C 73.696 111.608,73.696 111.612,74.181 111.237 C 74.651 110.872,74.658 110.882,74.324 111.419 C 74.129 111.732,73.887 111.936,73.786 111.874 C 73.450 111.666,73.590 118.092,73.932 118.580 C 74.107 118.830,74.328 118.958,74.422 118.863 C 74.517 118.769,74.594 118.922,74.594 119.203 C 74.594 119.484,74.740 119.872,74.919 120.064 C 75.182 120.348,75.170 120.379,74.854 120.227 C 74.615 120.112,74.641 120.184,74.919 120.412 C 75.169 120.617,75.374 120.984,75.374 121.227 C 75.374 121.469,75.491 121.596,75.634 121.507 C 75.776 121.419,75.893 121.581,75.893 121.867 C 75.893 122.153,76.007 122.457,76.146 122.543 C 76.286 122.629,76.595 123.112,76.834 123.616 C 77.150 124.280,77.330 124.438,77.487 124.190 C 77.661 123.916,77.710 123.926,77.729 124.237 C 77.798 125.376,78.335 126.444,78.720 126.206 C 78.812 126.149,79.117 126.618,79.398 127.249 C 79.679 127.879,79.999 128.395,80.110 128.395 C 80.221 128.395,80.312 128.573,80.312 128.790 C 80.312 129.221,81.520 131.254,81.776 131.254 C 81.864 131.254,81.774 131.049,81.578 130.799 C 81.254 130.386,81.263 130.377,81.683 130.706 C 81.936 130.905,82.082 131.130,82.007 131.205 C 81.932 131.280,82.075 131.576,82.326 131.862 C 82.576 132.149,82.636 132.298,82.459 132.195 C 82.242 132.068,82.187 132.138,82.291 132.409 C 82.376 132.630,82.550 132.746,82.678 132.667 C 82.806 132.588,82.911 132.771,82.911 133.073 C 82.911 133.376,83.005 133.566,83.119 133.495 C 83.233 133.425,83.476 133.606,83.658 133.897 C 83.930 134.332,83.927 134.396,83.645 134.251 C 83.456 134.154,83.506 134.242,83.756 134.447 C 84.006 134.652,84.211 134.953,84.211 135.116 C 84.211 135.279,84.327 135.413,84.470 135.413 C 84.613 135.413,84.730 135.642,84.730 135.923 C 84.730 136.204,84.973 136.564,85.270 136.723 C 85.572 136.884,85.749 137.171,85.672 137.374 C 85.595 137.572,85.663 137.815,85.821 137.914 C 85.996 138.022,86.037 137.974,85.925 137.792 C 85.823 137.627,85.802 137.492,85.878 137.492 C 86.123 137.492,86.918 139.169,86.845 139.532 C 86.806 139.725,86.900 139.806,87.052 139.712 C 87.217 139.610,87.329 139.775,87.329 140.119 C 87.329 140.437,87.403 140.623,87.494 140.533 C 87.717 140.309,88.629 141.501,88.629 142.016 C 88.629 142.244,88.746 142.430,88.889 142.430 C 89.032 142.430,89.149 142.671,89.149 142.965 C 89.149 143.260,89.266 143.428,89.409 143.340 C 89.552 143.251,89.683 143.303,89.701 143.454 C 89.719 143.606,89.748 143.837,89.766 143.968 C 89.784 144.099,89.905 144.304,90.035 144.423 C 90.173 144.549,90.193 144.503,90.085 144.314 C 89.732 143.701,90.129 143.990,90.575 144.671 C 90.874 145.128,90.906 145.287,90.670 145.153 C 90.477 145.043,90.584 145.211,90.909 145.526 C 91.234 145.842,91.420 146.239,91.322 146.409 C 91.225 146.579,91.240 146.633,91.356 146.528 C 91.652 146.259,92.250 147.121,92.259 147.831 C 92.264 148.158,92.443 148.492,92.658 148.574 C 92.872 148.656,93.047 148.893,93.047 149.101 C 93.047 149.309,93.164 149.406,93.307 149.318 C 93.561 149.161,93.673 149.503,93.586 150.167 C 93.562 150.348,93.689 150.464,93.868 150.426 C 94.047 150.388,94.213 150.504,94.238 150.682 C 94.262 150.861,94.297 151.131,94.314 151.282 C 94.332 151.434,94.464 151.485,94.607 151.397 C 94.750 151.309,94.867 151.360,94.867 151.512 C 94.867 151.663,94.875 151.838,94.885 151.900 C 94.895 151.962,95.304 152.438,95.795 152.958 C 96.285 153.478,96.686 154.070,96.686 154.275 C 96.686 154.629,97.510 155.613,97.921 155.750 C 98.028 155.786,98.088 155.900,98.053 156.003 C 98.019 156.106,98.219 156.312,98.498 156.461 C 98.825 156.636,98.947 156.886,98.842 157.162 C 98.736 157.437,98.780 157.527,98.964 157.413 C 99.270 157.223,101.281 159.460,101.170 159.866 C 101.134 159.997,101.251 160.075,101.429 160.039 C 101.608 160.003,101.722 160.129,101.683 160.318 C 101.644 160.508,101.714 160.599,101.840 160.521 C 101.966 160.443,102.340 160.669,102.672 161.022 C 103.003 161.375,103.178 161.663,103.059 161.663 C 102.940 161.663,103.053 161.895,103.308 162.177 C 103.564 162.460,103.856 162.640,103.957 162.577 C 104.237 162.404,105.821 164.138,105.593 164.366 C 105.483 164.476,105.510 164.542,105.653 164.513 C 106.149 164.413,106.593 164.523,106.475 164.717 C 106.410 164.825,106.521 165.063,106.720 165.247 C 106.919 165.432,107.083 165.495,107.083 165.387 C 107.083 165.280,107.441 165.597,107.880 166.092 C 108.319 166.587,108.597 166.816,108.499 166.602 C 108.400 166.387,108.714 166.621,109.196 167.122 C 110.305 168.274,111.393 169.177,111.129 168.727 C 110.963 168.444,111.021 168.442,111.457 168.714 C 111.749 168.896,111.918 169.157,111.834 169.293 C 111.749 169.431,111.818 169.456,111.991 169.349 C 112.179 169.233,112.643 169.531,113.168 170.104 C 113.890 170.893,115.288 171.852,116.114 172.125 C 116.221 172.161,116.280 172.277,116.244 172.385 C 116.209 172.492,116.355 172.580,116.569 172.580 C 116.784 172.580,116.959 172.703,116.959 172.855 C 116.959 173.006,117.063 173.066,117.190 172.988 C 117.425 172.842,118.077 173.450,117.893 173.643 C 117.837 173.701,117.955 173.900,118.155 174.084 C 118.355 174.269,118.519 174.330,118.519 174.221 C 118.519 173.995,119.406 175.206,119.459 175.504 C 119.478 175.611,119.508 175.881,119.526 176.104 C 119.544 176.327,119.652 176.451,119.766 176.380 C 119.880 176.310,120.123 176.491,120.305 176.782 C 120.566 177.201,120.567 177.270,120.310 177.111 C 120.130 177.000,120.297 177.320,120.681 177.823 C 121.228 178.541,121.378 179.023,121.378 180.077 L 121.378 181.417 118.259 181.417 C 114.452 181.417,114.839 181.373,114.295 181.865 C 113.762 182.348,113.568 227.360,114.100 227.031 C 114.243 226.942,114.360 226.980,114.360 227.115 C 114.360 227.250,114.606 227.424,114.906 227.503 C 115.206 227.581,115.375 227.770,115.281 227.922 C 114.907 228.527,193.708 228.280,194.227 227.674 C 194.472 227.388,194.672 227.032,194.672 226.882 C 194.672 226.733,194.791 226.683,194.936 226.773 C 195.114 226.883,195.196 219.687,195.187 204.696 C 195.179 189.665,195.088 182.456,194.908 182.456 C 194.761 182.456,194.725 182.310,194.828 182.131 C 194.931 181.953,194.923 181.890,194.809 181.992 C 194.696 182.094,194.359 182.007,194.060 181.797 C 193.646 181.507,192.655 181.417,189.901 181.417 L 186.285 181.417 186.408 178.206 C 186.527 175.114,186.950 173.527,187.507 174.076 C 187.615 174.182,187.670 174.094,187.628 173.879 C 187.515 173.297,187.916 172.290,188.193 172.461 C 188.326 172.543,188.434 172.442,188.434 172.237 C 188.434 172.032,188.608 171.719,188.821 171.542 C 189.034 171.366,189.152 171.130,189.082 171.018 C 189.013 170.906,189.132 170.748,189.345 170.666 C 189.559 170.584,189.734 170.344,189.734 170.133 C 189.734 169.923,189.997 169.566,190.318 169.340 C 190.640 169.115,190.918 168.816,190.936 168.676 C 190.954 168.536,190.983 168.285,191.001 168.118 C 191.019 167.951,191.109 167.890,191.202 167.983 C 191.420 168.202,192.363 167.120,192.193 166.846 C 192.122 166.731,192.201 166.553,192.369 166.450 C 192.571 166.324,192.603 166.375,192.463 166.602 C 192.324 166.827,192.354 166.879,192.552 166.756 C 192.717 166.654,192.853 166.303,192.853 165.975 C 192.853 165.646,193.145 165.063,193.502 164.677 C 193.860 164.291,194.152 163.828,194.152 163.648 C 194.152 163.468,194.363 163.094,194.621 162.817 C 194.880 162.540,195.104 162.255,195.120 162.183 C 195.421 160.843,195.539 160.604,195.742 160.924 C 195.906 161.183,195.964 161.135,195.967 160.741 C 195.970 160.448,196.081 160.097,196.215 159.961 C 196.349 159.825,196.510 159.363,196.572 158.934 C 196.634 158.506,196.825 158.186,196.995 158.225 C 197.166 158.264,197.270 158.089,197.228 157.836 C 197.185 157.582,197.265 157.316,197.405 157.245 C 197.546 157.173,197.697 157.495,197.742 157.960 C 197.787 158.424,197.933 158.804,198.067 158.804 C 198.201 158.804,198.297 158.892,198.280 158.999 C 198.184 159.605,198.347 160.112,198.588 159.963 C 198.740 159.869,198.838 159.950,198.805 160.143 C 198.712 160.690,199.140 162.003,199.320 161.721 C 199.408 161.583,199.782 162.093,200.151 162.854 C 200.520 163.616,200.716 164.173,200.586 164.093 C 200.457 164.014,200.500 164.187,200.683 164.478 C 200.865 164.770,201.084 164.965,201.170 164.912 C 201.255 164.859,201.474 165.055,201.657 165.346 C 201.929 165.782,201.926 165.840,201.644 165.675 C 201.454 165.564,201.504 165.707,201.754 165.993 C 202.005 166.279,202.209 166.650,202.209 166.817 C 202.209 166.985,202.355 167.092,202.534 167.057 C 202.713 167.021,202.830 167.138,202.794 167.316 C 202.758 167.495,202.846 167.641,202.989 167.641 C 203.132 167.641,203.220 167.749,203.184 167.880 C 203.148 168.011,203.679 168.717,204.364 169.447 C 205.065 170.195,205.530 170.904,205.428 171.068 C 205.315 171.252,205.365 171.288,205.565 171.164 C 205.767 171.039,205.935 171.166,206.026 171.514 C 206.104 171.814,206.272 172.060,206.398 172.060 C 206.524 172.060,206.628 172.359,206.628 172.725 C 206.628 173.102,206.740 173.320,206.888 173.229 C 207.156 173.063,207.238 173.369,207.166 174.269 C 207.131 174.710,207.169 174.730,207.418 174.399 C 207.663 174.075,207.693 174.101,207.595 174.553 C 207.521 174.896,207.656 175.209,207.962 175.400 C 208.388 175.666,208.447 176.053,208.447 178.560 L 208.447 181.417 204.678 181.449 C 202.606 181.467,200.791 181.496,200.646 181.514 C 200.321 181.554,199.612 182.882,199.606 183.461 C 199.603 183.830,199.569 183.835,199.350 183.496 C 199.187 183.243,199.106 190.664,199.120 204.678 C 199.132 216.543,199.236 225.958,199.350 225.601 L 199.558 224.951 199.590 225.601 C 199.627 226.354,200.221 227.138,201.229 227.764 C 202.057 228.278,279.477 228.450,279.793 227.938 C 279.883 227.794,279.749 227.750,279.481 227.834 C 279.052 227.970,279.055 227.948,279.505 227.580 C 279.777 227.358,280.098 227.239,280.220 227.314 C 280.342 227.389,280.442 227.281,280.442 227.074 C 280.442 226.866,280.617 226.629,280.832 226.547 C 281.174 226.415,281.222 223.729,281.222 204.541 C 281.222 191.742,281.125 182.745,280.989 182.829 C 280.768 182.966,280.382 182.364,280.334 181.806 C 280.321 181.652,278.942 181.516,276.933 181.471 C 273.149 181.386,272.904 181.343,272.904 180.760 C 272.904 180.529,273.029 180.423,273.186 180.520 C 273.354 180.624,273.442 180.501,273.404 180.210 C 273.274 179.200,274.099 176.902,274.503 177.152 C 274.625 177.227,274.738 177.106,274.756 176.883 C 274.816 176.136,274.852 176.053,275.311 175.594 C 275.563 175.343,275.691 175.011,275.596 174.858 C 275.500 174.703,275.544 174.653,275.694 174.746 C 275.843 174.838,276.124 174.716,276.319 174.476 C 276.623 174.101,276.619 174.070,276.283 174.258 C 276.069 174.379,276.296 174.050,276.789 173.528 C 277.728 172.534,278.156 172.258,277.554 173.034 C 277.261 173.413,277.298 173.407,277.776 173.000 C 278.092 172.730,278.277 172.391,278.186 172.245 C 278.096 172.099,278.140 172.052,278.283 172.141 C 278.426 172.229,278.822 172.043,279.162 171.726 C 279.502 171.409,279.812 171.179,279.851 171.215 C 280.060 171.406,280.449 171.241,280.312 171.020 C 280.224 170.877,280.399 170.760,280.702 170.760 C 281.005 170.760,281.193 170.664,281.120 170.547 C 280.952 170.275,281.736 169.616,282.355 169.509 C 282.614 169.464,283.180 169.025,283.612 168.532 C 284.045 168.040,284.678 167.567,285.019 167.481 C 285.361 167.395,285.640 167.221,285.640 167.093 C 285.640 166.966,285.815 166.862,286.030 166.862 C 286.244 166.862,286.391 166.715,286.355 166.537 C 286.319 166.358,286.436 166.241,286.615 166.277 C 286.793 166.313,286.910 166.201,286.875 166.029 C 286.839 165.857,286.985 165.705,287.199 165.692 C 287.414 165.679,287.560 165.527,287.524 165.355 C 287.489 165.183,287.553 165.071,287.668 165.107 C 287.782 165.143,288.257 164.739,288.723 164.210 C 289.189 163.681,289.799 163.175,290.078 163.087 C 290.357 162.998,290.527 162.830,290.455 162.714 C 290.383 162.597,290.521 162.343,290.761 162.148 C 291.137 161.843,291.166 161.848,290.968 162.183 C 290.770 162.519,290.799 162.524,291.175 162.219 C 291.416 162.024,291.537 161.743,291.445 161.594 C 291.353 161.445,291.395 161.396,291.539 161.484 C 291.682 161.573,292.050 161.357,292.357 161.005 C 292.663 160.652,292.842 160.364,292.754 160.364 C 292.666 160.364,292.738 160.190,292.915 159.977 C 293.092 159.764,293.358 159.665,293.507 159.757 C 293.660 159.852,293.700 159.799,293.600 159.637 C 293.503 159.479,293.660 159.223,293.950 159.068 C 294.240 158.913,294.477 158.608,294.477 158.390 C 294.477 158.172,294.578 158.057,294.702 158.133 C 294.826 158.210,295.148 158.014,295.417 157.698 C 295.900 157.132,295.900 157.129,295.387 157.480 C 295.101 157.675,295.304 157.410,295.838 156.890 C 296.372 156.371,296.722 155.943,296.617 155.940 C 296.512 155.936,296.719 155.692,297.076 155.397 C 297.433 155.102,297.550 154.953,297.336 155.067 C 297.122 155.180,297.287 154.868,297.703 154.374 C 298.119 153.880,298.557 153.506,298.677 153.541 C 298.797 153.577,298.899 153.402,298.904 153.151 C 298.913 152.629,299.528 151.727,299.735 151.933 C 299.810 152.009,299.949 151.768,300.041 151.398 C 300.134 151.029,300.327 150.798,300.469 150.886 C 300.611 150.974,300.711 150.949,300.690 150.832 C 300.594 150.278,300.742 149.954,301.015 150.122 C 301.198 150.236,301.244 150.194,301.134 150.015 C 301.034 149.853,301.191 149.517,301.483 149.267 C 301.775 149.017,302.014 148.604,302.014 148.350 C 302.014 148.096,302.131 147.888,302.274 147.888 C 302.417 147.888,302.534 147.654,302.534 147.368 C 302.534 147.080,302.707 146.849,302.924 146.849 C 303.138 146.849,303.300 146.761,303.283 146.654 C 303.205 146.157,303.335 145.792,303.545 145.921 C 303.744 146.044,304.737 144.353,304.679 143.990 C 304.634 143.711,305.204 143.223,305.420 143.356 C 305.545 143.434,305.580 143.322,305.498 143.109 C 305.415 142.893,305.588 142.518,305.891 142.258 C 306.189 142.003,306.433 141.682,306.433 141.544 C 306.433 141.407,306.696 141.005,307.018 140.651 C 307.339 140.297,307.458 140.090,307.283 140.191 C 307.095 140.299,307.147 140.054,307.408 139.600 C 307.652 139.174,307.916 138.929,307.995 139.055 C 308.073 139.182,308.297 138.911,308.492 138.454 C 308.688 137.996,309.035 137.397,309.265 137.122 C 309.549 136.782,309.567 136.690,309.322 136.835 C 308.918 137.072,310.013 135.439,310.538 135.021 C 310.723 134.873,310.894 134.500,310.917 134.191 C 310.940 133.882,311.076 133.650,311.218 133.676 C 311.361 133.702,311.491 133.606,311.508 133.463 C 311.575 132.887,312.251 131.776,312.394 132.007 C 312.478 132.143,312.681 131.971,312.844 131.624 C 313.008 131.277,313.032 131.061,312.897 131.145 C 312.763 131.228,312.901 130.906,313.204 130.430 C 313.507 129.954,313.991 129.185,314.278 128.720 C 314.566 128.255,314.907 127.875,315.035 127.875 C 315.164 127.875,315.273 127.671,315.278 127.420 C 315.288 126.858,315.909 126.003,316.140 126.233 C 316.233 126.326,316.318 126.295,316.329 126.164 C 316.414 125.144,317.342 123.615,318.038 123.348 C 318.231 123.274,318.391 122.946,318.394 122.620 C 318.398 122.294,318.642 121.735,318.937 121.378 C 319.232 121.020,319.386 120.903,319.279 121.118 C 319.165 121.347,319.182 121.418,319.322 121.291 C 319.561 121.072,319.594 120.960,319.660 120.143 C 319.691 119.753,319.732 119.743,319.948 120.078 C 320.187 120.448,320.354 119.963,320.239 119.233 C 320.222 119.126,320.310 119.038,320.434 119.038 C 320.559 119.038,320.753 118.190,320.866 117.154 C 321.036 115.595,321.104 115.404,321.259 116.049 C 321.387 116.582,321.444 116.211,321.440 114.880 C 321.435 113.379,321.395 113.170,321.266 113.970 C 321.114 114.915,321.079 114.824,320.889 112.980 C 320.685 110.997,320.197 109.520,319.857 109.859 C 319.703 110.014,319.575 109.328,319.664 108.818 C 319.684 108.700,319.598 108.667,319.472 108.745 C 319.165 108.934,318.070 107.747,318.321 107.496 C 318.430 107.388,318.343 107.338,318.129 107.386 C 317.914 107.433,317.768 107.326,317.804 107.147 C 317.840 106.969,317.723 106.852,317.544 106.888 C 317.365 106.923,317.248 106.806,317.284 106.628 C 317.320 106.449,317.186 106.303,316.987 106.303 C 316.788 106.303,316.553 106.115,316.465 105.886 C 316.370 105.640,316.140 105.532,315.903 105.623 C 315.664 105.715,315.234 105.511,314.846 105.123 C 314.404 104.682,313.795 104.421,312.976 104.324 C 311.466 104.146,310.292 103.717,310.480 103.414 C 310.559 103.286,309.285 103.184,307.602 103.184 C 305.655 103.184,304.640 103.276,304.743 103.444 C 304.840 103.600,304.459 103.714,303.784 103.730 C 302.873 103.751,302.785 103.791,303.314 103.944 C 303.814 104.090,303.560 104.178,302.207 104.329 C 301.044 104.459,300.509 104.621,300.625 104.808 C 300.736 104.988,300.645 105.032,300.376 104.929 C 300.143 104.839,299.871 104.896,299.773 105.055 C 299.658 105.242,299.715 105.269,299.935 105.133 C 300.160 104.994,300.213 105.024,300.090 105.223 C 299.988 105.388,299.674 105.523,299.392 105.523 C 299.110 105.523,298.812 105.699,298.729 105.913 C 298.647 106.127,298.442 106.303,298.273 106.303 C 298.104 106.303,297.561 106.662,297.066 107.100 C 296.571 107.539,296.342 107.815,296.556 107.715 C 296.771 107.614,296.329 108.132,295.575 108.866 C 294.822 109.601,294.286 110.201,294.386 110.201 C 294.486 110.201,294.296 110.490,293.965 110.843 C 293.633 111.196,293.262 111.423,293.140 111.348 C 293.017 111.272,292.917 111.400,292.917 111.631 C 292.917 111.862,292.801 111.979,292.658 111.891 C 292.515 111.802,292.398 111.978,292.398 112.281 C 292.398 112.583,292.293 112.766,292.165 112.687 C 291.929 112.542,291.495 113.271,291.583 113.665 C 291.609 113.782,291.535 113.819,291.417 113.747 C 291.299 113.674,291.033 113.722,290.826 113.853 C 290.567 114.017,290.550 114.093,290.773 114.096 C 290.987 114.099,290.943 114.263,290.643 114.579 C 290.393 114.842,290.083 114.999,289.953 114.928 C 289.824 114.857,289.791 114.918,289.880 115.062 C 290.084 115.392,288.921 116.515,288.653 116.247 C 288.544 116.138,288.495 116.225,288.542 116.439 C 288.590 116.654,288.497 116.804,288.335 116.774 C 288.173 116.744,288.056 116.861,288.075 117.034 C 288.094 117.207,288.011 117.370,287.891 117.397 C 287.517 117.478,286.978 118.369,287.134 118.646 C 287.216 118.790,287.184 118.819,287.064 118.710 C 286.809 118.478,285.380 119.767,285.380 120.229 C 285.380 120.401,285.197 120.612,284.974 120.698 C 284.750 120.784,284.640 120.972,284.729 121.116 C 284.818 121.260,284.759 121.378,284.597 121.378 C 284.225 121.378,283.561 122.032,283.561 122.399 C 283.561 122.552,283.385 122.677,283.171 122.677 C 282.801 122.677,282.655 123.010,282.772 123.587 C 282.801 123.730,282.737 123.760,282.631 123.653 C 282.525 123.547,282.310 123.713,282.154 124.023 C 281.223 125.874,281.222 125.814,281.222 88.115 C 281.222 61.359,281.144 51.479,280.934 51.609 C 280.740 51.729,280.703 51.606,280.821 51.235 C 280.925 50.907,280.884 50.682,280.719 50.682 C 280.567 50.682,280.442 50.208,280.442 49.627 C 280.442 48.990,280.339 48.636,280.182 48.733 C 279.925 48.892,279.815 48.542,279.909 47.862 C 279.935 47.669,279.832 47.588,279.680 47.683 C 279.527 47.777,279.388 47.730,279.370 47.579 C 279.352 47.427,279.308 47.186,279.272 47.044 C 279.237 46.901,279.193 46.660,279.175 46.508 C 279.157 46.357,279.025 46.305,278.882 46.394 C 278.644 46.541,278.507 46.186,278.598 45.660 C 278.619 45.542,278.528 45.512,278.396 45.593 C 278.188 45.722,277.959 45.399,277.812 44.767 C 277.788 44.661,277.435 44.329,277.029 44.029 C 276.623 43.730,276.367 43.408,276.460 43.315 C 276.553 43.221,276.376 43.145,276.067 43.145 C 275.757 43.145,275.270 42.911,274.984 42.625 C 274.698 42.339,274.464 42.168,274.464 42.245 C 274.464 42.322,274.208 42.147,273.895 41.855 C 273.582 41.564,273.144 41.317,272.920 41.306 C 272.011 41.263,271.210 41.036,271.128 40.798 C 271.002 40.430,265.107 40.467,265.107 40.836 C 265.107 40.996,264.879 41.067,264.600 40.994 C 264.321 40.921,264.049 40.993,263.995 41.154 C 263.941 41.315,263.556 41.420,263.138 41.389 C 262.637 41.350,262.496 41.406,262.725 41.552 C 262.986 41.719,262.922 41.822,262.465 41.969 C 261.658 42.230,261.493 42.288,261.339 42.365 C 261.267 42.401,261.062 42.450,260.884 42.474 C 260.705 42.499,260.596 42.689,260.642 42.897 C 260.704 43.176,260.649 43.199,260.431 42.986 C 260.269 42.826,260.126 42.329,260.113 41.881 C 260.100 41.433,259.991 41.066,259.869 41.066 C 259.748 41.066,259.649 40.738,259.649 40.338 C 259.649 39.938,259.503 39.453,259.324 39.260 C 259.121 39.041,259.112 38.973,259.300 39.078 C 259.527 39.206,259.528 39.093,259.304 38.619 C 259.141 38.274,258.898 38.059,258.765 38.141 C 258.629 38.225,258.595 38.101,258.687 37.859 C 258.778 37.622,258.740 37.427,258.601 37.427 C 258.463 37.427,258.350 37.245,258.350 37.022 C 258.350 36.799,258.256 36.674,258.142 36.745 C 258.027 36.816,257.785 36.635,257.603 36.343 C 257.331 35.908,257.333 35.848,257.616 36.010 C 257.805 36.119,257.620 35.843,257.205 35.397 C 256.790 34.951,256.349 34.649,256.224 34.726 C 256.099 34.803,256.030 34.712,256.069 34.522 C 256.108 34.332,255.966 34.217,255.750 34.265 C 255.536 34.312,255.447 34.265,255.553 34.159 C 255.803 33.909,255.244 33.230,254.941 33.417 C 254.815 33.495,254.711 33.435,254.711 33.284 C 254.711 33.132,254.565 33.038,254.386 33.073 C 254.207 33.109,254.090 32.992,254.126 32.814 C 254.162 32.635,254.045 32.480,253.866 32.469 C 253.087 32.421,252.604 32.245,251.921 31.758 C 251.266 31.292,250.768 31.238,247.053 31.232 C 244.776 31.229,243.064 31.318,243.246 31.431 C 243.683 31.701,242.929 32.019,242.365 31.803 C 242.151 31.721,241.975 31.783,241.975 31.941 C 241.975 32.099,241.888 32.216,241.780 32.201 C 241.388 32.144,240.416 32.556,240.416 32.779 C 240.416 32.905,240.153 33.018,239.831 33.029 C 239.509 33.040,239.395 33.109,239.576 33.182 C 239.907 33.315,238.904 34.301,238.426 34.314 C 238.305 34.317,237.876 34.786,237.473 35.357 C 237.057 35.944,236.615 36.318,236.454 36.218 C 236.272 36.106,236.228 36.196,236.332 36.468 C 236.432 36.727,236.323 36.994,236.052 37.152 C 235.807 37.295,235.707 37.415,235.828 37.419 C 235.949 37.423,235.803 37.843,235.503 38.351 C 235.203 38.860,234.958 39.510,234.958 39.796 C 234.958 40.123,234.846 40.248,234.658 40.131 C 234.490 40.028,234.428 40.059,234.516 40.201 C 234.603 40.342,234.512 40.993,234.315 41.647 C 234.118 42.302,234.036 42.922,234.133 43.025 C 234.229 43.129,234.045 43.053,233.723 42.857 C 233.402 42.660,233.138 42.404,233.138 42.287 C 233.138 42.170,233.030 42.142,232.896 42.224 C 232.763 42.306,232.581 42.255,232.491 42.110 C 232.401 41.964,232.072 41.844,231.759 41.841 C 231.296 41.838,231.262 41.790,231.579 41.585 C 231.896 41.381,231.862 41.333,231.399 41.330 C 231.086 41.327,230.764 41.220,230.684 41.090 C 230.604 40.960,230.305 40.916,230.019 40.990 C 229.729 41.066,229.500 40.998,229.500 40.836 C 229.500 40.638,228.466 40.546,226.235 40.546 C 223.876 40.546,223.022 40.627,223.153 40.839 C 223.263 41.017,223.193 41.086,222.975 41.013 C 222.778 40.948,222.472 41.039,222.294 41.217 C 222.117 41.394,221.706 41.481,221.382 41.410 C 220.962 41.318,220.892 41.351,221.140 41.527 C 221.408 41.718,221.349 41.818,220.880 41.969 C 220.546 42.077,220.185 42.196,220.078 42.233 C 219.590 42.402,219.481 42.425,219.306 42.399 C 219.203 42.383,218.993 42.606,218.838 42.895 C 218.684 43.183,218.428 43.340,218.270 43.242 C 218.108 43.142,218.056 43.182,218.151 43.335 C 218.310 43.593,217.742 44.275,217.520 44.093 C 217.462 44.045,217.063 44.358,216.634 44.788 C 216.205 45.218,216.030 45.470,216.244 45.347 C 216.580 45.156,216.585 45.186,216.280 45.561 C 216.085 45.802,215.822 45.934,215.695 45.856 C 215.490 45.729,215.419 45.925,215.487 46.430 C 215.499 46.521,215.379 46.676,215.221 46.774 C 215.062 46.872,214.880 47.227,214.815 47.563 C 214.750 47.900,214.577 48.295,214.431 48.441 C 214.285 48.587,214.165 48.966,214.165 49.283 C 214.165 49.600,214.033 49.903,213.872 49.957 C 213.526 50.072,213.463 50.582,213.418 53.582 C 213.387 55.696,213.354 55.824,212.865 55.696 C 212.580 55.621,212.346 55.457,212.346 55.330 C 212.346 55.204,211.988 55.101,211.551 55.101 C 211.113 55.101,210.820 54.996,210.899 54.868 C 210.978 54.740,210.862 54.566,210.641 54.481 C 210.372 54.378,210.299 54.433,210.421 54.649 C 210.563 54.900,210.526 54.899,210.253 54.646 C 210.060 54.467,209.487 54.319,208.980 54.317 C 208.288 54.314,208.155 54.250,208.447 54.061 C 208.715 53.888,208.149 53.809,206.628 53.809 C 205.107 53.809,204.540 53.888,204.808 54.061 C 205.104 54.252,204.979 54.324,204.288 54.357 C 202.874 54.424,202.780 54.442,202.552 54.691 C 202.428 54.827,202.492 54.836,202.704 54.712 C 202.950 54.570,203.009 54.599,202.884 54.801 C 202.782 54.966,202.402 55.101,202.040 55.101 C 201.678 55.101,201.086 55.333,200.725 55.617 C 200.364 55.901,199.948 56.058,199.799 55.967 C 199.643 55.870,199.608 55.926,199.715 56.100 C 199.817 56.265,199.764 56.400,199.598 56.400 C 199.431 56.400,199.064 56.694,198.782 57.053 C 198.500 57.411,198.175 57.646,198.059 57.575 C 197.944 57.504,197.770 57.708,197.673 58.028 C 197.565 58.384,197.444 58.483,197.361 58.283 C 197.287 58.103,197.090 58.034,196.924 58.130 C 196.757 58.225,196.708 58.207,196.814 58.090 C 197.077 57.799,196.499 57.145,196.162 57.353 C 196.013 57.445,195.966 57.398,196.058 57.250 C 196.150 57.101,196.029 56.820,195.789 56.625 C 195.413 56.320,195.384 56.325,195.582 56.660 C 195.843 57.105,195.391 56.795,194.158 55.686 C 193.800 55.364,193.178 55.101,192.775 55.101 C 192.353 55.101,192.110 54.991,192.203 54.841 C 192.291 54.698,192.116 54.581,191.813 54.581 C 191.510 54.581,191.320 54.488,191.389 54.375 C 191.459 54.262,191.086 54.211,190.560 54.262 C 189.835 54.332,189.698 54.288,189.994 54.082 C 190.278 53.883,189.751 53.809,188.044 53.809 C 186.337 53.809,185.810 53.883,186.095 54.082 C 186.390 54.288,186.253 54.332,185.528 54.262 C 185.002 54.211,184.618 54.245,184.675 54.336 C 184.800 54.539,183.818 55.052,183.106 55.155 C 182.820 55.197,182.432 55.377,182.243 55.556 C 181.476 56.281,181.243 55.171,181.384 51.462 C 181.406 50.868,181.388 50.857,181.171 51.332 C 180.947 51.821,180.736 50.269,180.878 49.184 C 180.902 49.003,180.786 48.886,180.620 48.924 C 180.454 48.962,180.269 48.700,180.210 48.343 C 180.038 47.314,179.500 46.264,179.144 46.264 C 178.852 46.264,178.762 46.060,178.845 45.587 C 178.894 45.307,176.658 43.164,176.451 43.292 C 176.340 43.360,176.021 43.171,175.742 42.872 C 175.463 42.572,175.076 42.289,174.882 42.243 C 173.884 42.004,173.378 41.766,173.489 41.585 C 173.650 41.325,172.632 41.003,171.800 41.051 C 171.280 41.081,171.228 41.035,171.540 40.821 C 171.816 40.632,170.923 40.553,168.471 40.550 C 165.916 40.547,165.060 40.624,165.197 40.847 C 165.325 41.053,165.207 41.101,164.823 41.001 C 164.515 40.920,164.263 40.960,164.263 41.090 C 164.263 41.220,163.963 41.326,163.597 41.326 C 163.156 41.326,162.995 41.428,163.120 41.630 C 163.243 41.829,163.171 41.881,162.909 41.781 C 162.676 41.691,162.115 41.954,161.558 42.412 C 161.035 42.844,160.624 43.098,160.646 42.976 C 160.785 42.194,160.581 41.470,160.364 41.975 C 160.154 42.464,160.010 41.542,160.012 39.716 C 160.012 39.475,159.901 39.299,159.765 39.327 C 159.629 39.354,159.471 39.062,159.414 38.678 C 159.290 37.837,158.678 36.600,158.484 36.795 C 158.256 37.023,157.237 35.571,157.419 35.277 C 157.510 35.129,157.463 35.083,157.315 35.175 C 157.166 35.267,156.899 35.168,156.723 34.955 C 156.546 34.742,156.479 34.568,156.574 34.568 C 156.668 34.568,156.595 34.404,156.411 34.203 C 156.226 34.002,156.017 33.854,155.945 33.873 C 155.655 33.950,154.164 32.898,154.285 32.701 C 154.401 32.513,153.820 32.373,153.281 32.458 C 153.174 32.475,153.086 32.365,153.086 32.213 C 153.086 32.062,152.969 32.010,152.827 32.099 C 152.684 32.187,152.566 32.165,152.565 32.049 C 152.557 31.239,145.038 30.814,143.743 31.551 M150.487 35.029 C 153.174 36.088,154.827 37.563,156.065 40.005 L 156.736 41.331 156.603 75.051 C 156.530 93.598,156.440 110.409,156.403 112.411 C 156.331 116.399,156.538 118.860,157.146 121.248 C 161.557 138.551,173.708 149.924,191.125 153.049 C 192.676 153.328,194.059 153.669,194.198 153.809 C 195.077 154.688,191.412 162.007,187.507 167.170 C 183.686 172.221,182.959 174.043,182.733 179.130 C 182.636 181.318,182.472 182.545,182.248 182.768 C 181.752 183.264,126.643 183.402,125.969 182.909 C 125.690 182.706,125.356 181.821,125.112 180.639 C 123.804 174.319,122.027 171.826,115.758 167.511 C 106.556 161.179,101.371 155.419,93.175 142.430 C 91.777 140.214,90.094 137.561,89.436 136.533 C 88.778 135.505,87.812 133.985,87.290 133.154 C 86.768 132.324,84.554 128.837,82.370 125.406 C 77.415 117.624,77.110 117.023,77.084 114.989 C 77.002 108.760,85.877 104.690,92.303 108.010 C 94.446 109.117,95.705 110.392,105.079 120.942 C 115.830 133.042,115.859 133.073,116.349 133.073 C 117.197 133.073,117.219 132.041,117.219 91.960 C 117.219 54.175,117.246 51.784,117.680 50.682 C 121.008 42.237,131.517 41.855,135.550 50.032 C 136.047 51.042,136.066 51.862,136.192 78.204 C 136.312 103.156,136.357 105.359,136.755 105.610 C 138.061 106.433,138.012 107.686,138.012 73.717 C 138.012 39.432,137.920 41.773,139.370 39.089 C 141.255 35.597,146.795 33.574,150.487 35.029 M251.103 35.387 C 253.890 36.686,255.851 39.202,256.502 42.313 C 256.703 43.276,256.791 52.939,256.794 74.412 C 256.798 105.158,256.821 105.915,257.731 105.740 C 258.205 105.649,258.224 104.810,258.350 78.619 L 258.480 51.592 259.178 50.101 C 262.571 42.863,271.548 41.977,275.874 48.454 C 277.623 51.072,277.554 49.256,277.569 93.060 C 277.583 133.455,277.574 133.073,278.527 133.073 C 278.704 133.073,281.458 130.128,284.648 126.528 C 300.099 109.092,299.939 109.261,301.991 108.236 C 309.092 104.688,317.434 108.340,317.465 115.010 L 317.475 117.089 315.658 120.023 C 314.658 121.637,313.548 123.418,313.190 123.980 C 312.833 124.543,312.082 125.737,311.521 126.634 C 310.960 127.531,310.015 129.025,309.420 129.955 C 308.375 131.587,304.511 137.691,302.044 141.605 C 293.108 155.785,288.031 161.363,277.644 168.411 C 272.907 171.626,270.130 175.885,269.595 180.759 C 269.297 183.466,272.087 183.228,240.611 183.232 C 208.678 183.236,212.086 183.601,212.086 180.182 C 212.086 175.139,210.988 172.230,207.171 167.151 C 203.738 162.584,200.210 155.862,200.440 154.326 C 200.547 153.605,200.872 153.475,203.899 152.945 C 218.382 150.404,230.723 140.502,235.638 127.476 C 236.200 125.988,236.715 124.352,237.109 122.807 C 237.328 121.949,237.648 120.721,237.821 120.078 C 238.355 118.091,238.461 107.813,237.969 105.702 C 237.605 104.138,237.557 100.364,237.557 73.420 L 237.557 42.909 238.178 41.198 C 240.212 35.595,245.983 33.000,251.103 35.387 M172.407 45.089 C 174.160 45.969,176.192 48.054,177.048 49.852 C 177.617 51.048,177.630 51.300,177.722 62.755 C 177.838 77.176,178.106 75.708,174.975 77.793 C 169.033 81.748,164.470 86.715,160.900 93.112 C 160.059 94.620,159.687 94.866,159.116 94.295 C 158.481 93.660,158.689 52.035,159.335 50.394 C 161.433 45.073,167.483 42.618,172.407 45.089 M229.500 44.646 C 232.955 46.007,234.860 48.166,235.629 51.592 C 236.162 53.968,236.161 94.300,235.628 94.505 C 234.920 94.777,234.245 94.094,232.981 91.829 C 229.863 86.240,225.123 81.262,219.439 77.607 C 216.534 75.739,216.764 76.908,216.764 64.037 C 216.764 51.585,216.840 50.927,218.568 48.318 C 220.865 44.851,225.807 43.191,229.500 44.646 M190.011 57.853 C 194.369 59.127,196.251 61.862,196.440 67.195 C 196.583 71.255,196.959 70.942,191.033 71.708 C 188.705 72.009,187.109 72.388,184.665 73.221 C 179.104 75.118,179.597 75.518,179.597 69.105 L 179.597 64.199 180.385 62.532 C 182.170 58.753,186.272 56.759,190.011 57.853 M208.938 57.950 C 213.752 59.488,215.205 62.170,215.205 69.514 C 215.205 75.099,215.145 75.186,212.168 73.983 C 209.748 73.005,208.915 72.735,207.603 72.504 C 206.924 72.384,206.254 72.215,206.114 72.129 C 205.974 72.042,205.008 71.865,203.969 71.736 C 197.696 70.955,197.954 71.156,198.124 67.186 C 198.420 60.292,203.278 56.142,208.938 57.950 M204.288 73.902 C 227.824 78.449,241.892 102.172,234.368 124.626 C 226.848 147.071,201.618 157.673,180.247 147.368 C 163.496 139.291,154.545 119.548,159.685 102.014 C 159.895 101.300,160.204 100.247,160.373 99.675 C 164.315 86.302,177.585 75.715,193.242 73.450 C 194.802 73.225,202.389 73.535,204.288 73.902 M188.319 84.268 C 187.972 84.763,187.914 86.095,187.914 93.573 C 187.914 100.014,187.833 102.382,187.602 102.612 C 187.372 102.842,184.972 102.924,178.416 102.924 C 170.148 102.924,169.512 102.956,169.111 103.399 C 168.596 103.969,168.449 120.198,168.950 121.135 C 169.208 121.617,169.586 121.637,178.158 121.637 C 185.938 121.637,187.150 121.690,187.506 122.046 C 187.861 122.401,187.914 123.598,187.914 131.223 C 187.914 138.386,187.982 140.084,188.283 140.496 C 188.765 141.155,205.416 141.293,206.198 140.644 C 206.582 140.325,206.628 139.347,206.628 131.367 L 206.628 122.447 207.205 122.042 C 207.700 121.695,209.032 121.637,216.510 121.637 C 222.951 121.637,225.319 121.556,225.549 121.326 C 226.158 120.716,225.977 103.524,225.358 103.193 C 225.040 103.023,221.654 102.924,216.150 102.924 C 208.582 102.924,207.391 102.871,207.036 102.516 C 206.681 102.160,206.628 100.961,206.628 93.307 C 206.628 85.654,206.574 84.454,206.219 84.099 C 205.463 83.342,188.857 83.499,188.319 84.268 M204.046 86.039 C 204.527 86.297,204.548 86.672,204.548 94.989 C 204.548 100.000,204.656 103.952,204.802 104.337 L 205.055 105.003 214.010 105.003 C 221.804 105.003,223.018 105.056,223.373 105.412 C 223.986 106.024,223.986 118.537,223.373 119.150 C 223.018 119.505,221.833 119.558,214.326 119.558 C 207.278 119.558,205.594 119.626,205.183 119.927 C 204.703 120.277,204.675 120.732,204.603 129.204 C 204.554 135.114,204.434 138.227,204.247 138.452 C 203.790 139.002,190.957 138.939,190.402 138.383 C 190.046 138.028,189.994 136.815,189.994 129.035 C 189.994 120.464,189.973 120.085,189.491 119.827 C 189.173 119.657,185.786 119.558,180.283 119.558 C 172.715 119.558,171.524 119.505,171.169 119.150 C 170.418 118.399,170.571 105.945,171.338 105.408 C 171.833 105.061,173.155 105.003,180.543 105.003 C 185.289 105.003,189.356 104.932,189.582 104.845 C 189.946 104.706,189.994 103.650,189.994 95.637 C 189.994 87.756,190.046 86.534,190.402 86.178 C 190.895 85.685,203.151 85.560,204.046 86.039 M190.790 185.324 C 191.500 185.704,191.590 223.612,190.882 223.884 C 190.027 224.212,118.121 224.060,117.791 223.730 C 117.255 223.194,117.349 186.002,117.887 185.464 C 118.388 184.963,189.859 184.826,190.790 185.324 M276.560 185.324 C 277.270 185.704,277.360 223.612,276.652 223.884 C 275.366 224.377,203.786 224.040,203.518 223.539 C 203.028 222.623,203.158 186.341,203.653 185.633 L 204.058 185.055 240.058 185.055 C 264.376 185.055,276.221 185.143,276.560 185.324 M173.489 197.455 C 171.685 198.074,169.713 200.075,168.981 202.032 C 166.232 209.380,175.304 215.609,181.128 210.372 C 187.380 204.752,181.450 194.725,173.489 197.455 M216.167 197.370 C 209.059 200.019,209.175 209.543,216.346 211.986 C 222.579 214.110,228.462 206.799,225.223 200.953 C 223.475 197.797,219.374 196.175,216.167 197.370 M177.713 199.394 C 181.317 200.301,182.845 204.885,180.569 207.963 C 178.640 210.573,174.409 210.865,172.302 208.535 C 168.307 204.117,171.960 197.945,177.713 199.394 M221.364 199.902 C 226.187 202.883,224.210 210.083,218.569 210.083 C 213.075 210.083,211.020 203.380,215.497 200.063 C 216.940 198.993,219.768 198.916,221.364 199.902 " stroke="none" fill="#15171c" fill-rule="evenodd"></path><path id="path2" d="M143.437 31.384 C 143.126 31.780,143.131 31.800,143.470 31.542 C 143.684 31.379,144.094 31.188,144.379 31.117 C 144.873 30.996,144.872 30.988,144.346 30.959 C 144.042 30.943,143.633 31.134,143.437 31.384 M145.151 35.648 C 143.582 36.051,141.369 37.655,140.418 39.077 C 138.706 41.640,138.791 39.785,138.791 74.251 C 138.791 109.045,138.917 106.563,137.152 106.563 C 135.417 106.563,135.557 108.804,135.413 78.708 L 135.283 51.592 134.609 50.162 C 131.594 43.760,123.181 43.104,119.428 48.977 C 117.953 51.286,117.999 49.896,117.999 92.653 C 117.999 133.838,118.009 133.450,116.857 133.739 C 115.664 134.039,115.196 133.582,105.439 122.591 C 100.078 116.550,95.146 111.106,94.480 110.492 C 87.576 104.128,74.909 109.802,78.591 117.609 C 78.928 118.324,80.366 120.721,81.787 122.937 C 83.208 125.153,87.398 131.761,91.098 137.622 C 102.278 155.333,106.887 160.645,116.784 167.229 C 122.218 170.844,124.970 174.777,125.894 180.247 L 126.202 182.066 153.354 182.138 C 168.288 182.177,180.752 182.150,181.052 182.078 C 181.545 181.959,181.614 181.701,181.765 179.391 C 182.099 174.293,183.156 171.608,186.677 166.906 C 189.436 163.223,191.042 160.527,192.367 157.355 C 193.550 154.524,193.530 154.212,192.151 154.010 C 168.126 150.483,152.223 129.213,155.898 105.523 C 156.171 103.764,156.224 97.069,156.158 72.645 L 156.075 41.975 155.370 40.546 C 153.401 36.556,149.290 34.586,145.151 35.648 M244.821 35.686 C 242.557 36.327,240.565 38.012,239.322 40.339 L 238.726 41.455 238.655 72.645 C 238.594 99.252,238.642 104.338,238.980 107.265 C 241.628 130.186,225.281 151.351,202.902 153.975 C 202.212 154.056,201.550 154.181,201.433 154.254 C 200.578 154.783,204.832 163.010,207.954 166.862 C 211.385 171.096,212.865 174.873,212.865 179.394 C 212.865 180.742,212.984 181.691,213.177 181.884 C 213.756 182.462,268.143 182.322,268.444 181.741 C 268.573 181.491,268.764 180.702,268.867 179.987 C 269.540 175.321,272.533 170.792,276.803 167.977 C 280.890 165.284,284.516 162.300,288.245 158.561 C 293.841 152.951,294.323 152.277,306.550 132.943 C 307.725 131.085,310.243 127.109,312.146 124.107 C 317.280 116.007,317.586 115.089,316.101 112.246 C 313.686 107.622,306.498 106.295,301.413 109.534 C 300.573 110.069,296.899 114.000,290.238 121.491 C 279.042 134.082,279.262 133.853,278.341 133.853 C 276.536 133.853,276.688 137.389,276.543 91.916 C 276.396 45.648,276.645 50.299,274.174 47.685 C 270.032 43.306,263.066 44.425,260.122 49.942 L 259.519 51.072 259.389 78.270 C 259.245 108.519,259.370 106.563,257.570 106.563 C 255.756 106.563,255.895 109.090,255.750 73.462 L 255.621 41.455 255.014 40.237 C 253.225 36.638,248.661 34.600,244.821 35.686 M165.349 45.472 C 162.807 46.337,160.482 48.910,159.879 51.523 C 159.512 53.113,159.456 92.788,159.821 92.788 C 159.951 92.788,160.739 91.708,161.571 90.389 C 165.048 84.879,169.179 80.619,174.251 77.313 C 175.432 76.543,176.539 75.743,176.711 75.537 C 177.374 74.737,176.981 51.835,176.278 50.323 C 174.241 45.945,169.777 43.964,165.349 45.472 M223.866 45.323 C 221.638 46.052,219.730 47.708,218.530 49.956 C 217.918 51.102,217.425 74.720,217.996 75.521 C 218.105 75.673,219.129 76.421,220.273 77.182 C 225.731 80.814,230.396 85.694,233.528 91.048 C 234.088 92.005,234.639 92.788,234.752 92.788 C 235.233 92.788,234.993 51.944,234.504 50.565 C 233.091 46.580,227.877 44.011,223.866 45.323 M214.217 48.135 C 214.045 48.307,213.919 48.687,213.935 48.980 C 213.965 49.502,213.968 49.502,214.093 48.993 C 214.163 48.707,214.340 48.327,214.485 48.148 C 214.821 47.734,214.628 47.724,214.217 48.135 M181.500 53.801 C 181.500 54.730,181.547 55.110,181.605 54.646 C 181.662 54.181,181.662 53.421,181.605 52.956 C 181.547 52.492,181.500 52.872,181.500 53.801 M185.965 58.707 C 181.964 59.760,180.541 62.294,180.420 68.581 C 180.315 74.035,180.196 73.851,183.151 72.811 C 186.247 71.722,189.567 70.966,192.853 70.602 L 195.582 70.300 195.575 67.314 C 195.563 61.085,191.331 57.295,185.965 58.707 M204.547 58.707 C 200.781 59.942,199.251 62.347,199.233 67.057 L 199.220 70.305 201.689 70.599 C 205.547 71.058,207.303 71.440,210.587 72.536 C 212.264 73.096,213.755 73.554,213.901 73.554 C 214.431 73.554,214.223 64.221,213.665 62.992 C 212.169 59.698,207.795 57.642,204.547 58.707 M191.182 86.958 C 190.827 87.313,190.773 88.498,190.773 95.997 C 190.773 103.388,190.715 104.711,190.369 105.205 C 189.964 105.783,189.963 105.783,181.157 105.783 C 172.350 105.783,172.349 105.783,171.945 106.361 C 171.419 107.111,171.336 117.951,171.852 118.467 C 172.082 118.697,174.426 118.778,180.784 118.778 C 189.111 118.778,189.427 118.797,190.088 119.317 L 190.773 119.856 190.777 128.609 C 190.779 133.423,190.875 137.510,190.990 137.692 C 191.152 137.946,192.617 138.005,197.419 137.952 L 203.639 137.882 203.769 128.859 C 203.887 120.649,203.940 119.794,204.362 119.372 C 204.784 118.950,205.640 118.897,213.849 118.778 L 222.872 118.648 222.942 112.573 C 222.991 108.310,222.923 106.391,222.715 106.140 C 222.474 105.850,220.770 105.783,213.632 105.783 L 204.846 105.783 204.307 105.098 C 203.787 104.437,203.769 104.120,203.769 95.793 C 203.769 89.436,203.687 87.092,203.457 86.862 C 202.935 86.340,191.712 86.428,191.182 86.958 M100.087 109.842 C 100.432 110.288,100.767 110.606,100.831 110.549 C 100.895 110.492,100.612 110.127,100.203 109.739 L 99.460 109.032 100.087 109.842 M73.385 114.880 C 73.385 116.095,73.430 116.592,73.485 115.984 C 73.539 115.377,73.539 114.383,73.485 113.775 C 73.430 113.168,73.385 113.665,73.385 114.880 M109.422 120.419 C 109.422 120.464,109.802 120.844,110.266 121.264 L 111.111 122.027 110.348 121.183 C 109.636 120.395,109.422 120.218,109.422 120.419 M99.025 157.586 C 99.025 157.631,99.405 158.011,99.870 158.431 L 100.715 159.194 99.951 158.350 C 99.240 157.562,99.025 157.385,99.025 157.586 M208.279 178.428 C 208.279 179.714,208.323 180.273,208.377 179.670 C 208.432 179.067,208.432 178.014,208.378 177.331 C 208.325 176.647,208.280 177.141,208.279 178.428 M195.316 204.418 C 195.316 216.140,195.348 220.898,195.387 214.990 C 195.426 209.083,195.425 199.492,195.387 193.678 C 195.348 187.863,195.316 192.697,195.316 204.418 M174.258 200.359 C 172.187 201.299,170.939 203.684,171.513 205.601 C 172.752 209.736,177.264 210.653,179.959 207.318 C 182.817 203.783,178.451 198.454,174.258 200.359 M216.772 200.266 C 212.543 202.172,213.022 208.009,217.506 209.217 C 220.236 209.952,223.262 207.554,223.262 204.656 C 223.262 201.431,219.634 198.977,216.772 200.266 M135.348 228.395 C 145.962 228.433,163.330 228.433,173.944 228.395 C 184.558 228.357,175.874 228.327,154.646 228.327 C 133.418 228.327,124.734 228.357,135.348 228.395 M221.008 228.395 C 231.705 228.433,249.132 228.433,259.734 228.395 C 270.337 228.357,261.585 228.327,240.286 228.327 C 218.986 228.327,210.311 228.357,221.008 228.395 " stroke="none" fill="#fafafa" fill-rule="evenodd"></path><path id="path3" d="M144.887 35.298 C 142.090 36.282,140.038 38.187,138.995 40.767 L 138.402 42.235 138.268 74.074 C 138.194 91.585,138.106 105.942,138.073 105.978 C 138.039 106.014,137.621 106.043,137.144 106.043 C 135.615 106.043,135.673 107.130,135.673 78.098 L 135.673 51.477 135.060 50.091 C 131.755 42.618,121.275 42.748,118.234 50.299 L 117.609 51.852 117.540 92.296 C 117.473 131.751,117.459 132.751,116.974 133.190 C 116.124 133.959,115.801 133.644,105.206 121.705 C 98.732 114.410,94.419 109.762,93.640 109.242 C 87.211 104.953,77.431 108.412,77.459 114.966 C 77.466 116.742,77.810 117.433,81.872 123.847 C 83.774 126.849,86.403 131.001,87.716 133.073 C 89.028 135.146,91.769 139.474,93.807 142.690 C 99.508 151.690,102.751 155.885,107.325 160.176 C 110.635 163.281,112.603 164.824,118.669 169.071 C 122.158 171.514,125.536 177.327,125.536 180.891 C 125.536 182.868,123.189 182.716,153.772 182.716 C 170.697 182.716,181.368 182.621,181.655 182.468 C 182.042 182.260,182.149 181.714,182.300 179.154 C 182.597 174.161,183.613 171.588,187.078 167.055 C 190.537 162.529,193.543 156.961,193.706 154.779 C 193.772 153.896,193.703 153.867,189.994 153.203 C 168.488 149.352,153.337 129.019,156.082 107.691 C 156.421 105.053,156.468 100.101,156.407 73.034 L 156.335 41.455 155.565 39.935 C 153.609 36.075,148.718 33.951,144.887 35.298 M244.737 35.253 C 241.673 36.194,239.235 38.689,238.432 41.706 C 237.963 43.465,237.919 103.681,238.385 105.523 C 238.945 107.736,238.777 117.472,238.127 120.495 C 235.081 134.660,225.358 146.136,212.119 151.193 C 209.354 152.248,203.908 153.606,202.438 153.606 C 200.760 153.606,200.569 154.140,201.434 156.415 C 202.711 159.774,205.395 164.395,207.653 167.122 C 210.882 171.022,212.178 174.316,212.509 179.467 C 212.601 180.897,212.792 182.212,212.933 182.391 C 213.309 182.869,267.921 182.867,268.574 182.389 C 268.863 182.177,269.116 181.423,269.292 180.245 C 270.069 175.039,272.578 171.407,277.937 167.733 C 288.347 160.597,292.774 155.548,303.478 138.606 C 305.355 135.634,308.970 129.929,311.510 125.926 C 316.817 117.564,317.176 116.860,317.158 114.873 C 317.095 108.093,306.811 104.820,300.558 109.590 C 300.038 109.986,296.853 113.414,293.479 117.208 C 277.006 135.730,278.580 134.198,277.262 132.999 C 277.228 132.969,277.140 114.581,277.067 92.138 L 276.933 51.332 276.239 49.851 C 272.639 42.170,261.717 43.006,259.245 51.151 C 258.935 52.173,258.875 56.671,258.872 78.768 C 258.869 106.368,258.894 105.737,257.790 106.119 C 256.321 106.626,256.412 108.581,256.270 73.510 L 256.140 41.455 255.518 40.286 C 253.221 35.969,248.930 33.966,244.737 35.253 M151.390 36.364 C 153.251 37.280,154.305 38.388,155.370 40.546 L 156.075 41.975 156.158 72.645 C 156.224 97.069,156.171 103.764,155.898 105.523 C 152.223 129.213,168.126 150.483,192.151 154.010 C 193.530 154.212,193.550 154.524,192.367 157.355 C 191.042 160.527,189.436 163.223,186.677 166.906 C 183.156 171.608,182.099 174.293,181.765 179.391 C 181.614 181.701,181.545 181.959,181.052 182.078 C 180.752 182.150,168.288 182.177,153.354 182.138 L 126.202 182.066 125.894 180.247 C 124.970 174.777,122.218 170.844,116.784 167.229 C 106.887 160.645,102.278 155.333,91.098 137.622 C 87.398 131.761,83.208 125.153,81.787 122.937 C 80.366 120.721,78.928 118.324,78.591 117.609 C 74.909 109.802,87.576 104.128,94.480 110.492 C 95.146 111.106,100.078 116.550,105.439 122.591 C 115.196 133.582,115.664 134.039,116.857 133.739 C 118.009 133.450,117.999 133.838,117.999 92.653 C 117.999 49.896,117.953 51.286,119.428 48.977 C 123.181 43.104,131.594 43.760,134.609 50.162 L 135.283 51.592 135.413 78.708 C 135.557 108.804,135.417 106.563,137.152 106.563 C 138.917 106.563,138.791 109.045,138.791 74.251 C 138.791 47.125,138.843 42.804,139.184 41.658 C 140.747 36.395,146.438 33.927,151.390 36.364 M250.613 36.070 C 252.215 36.779,254.256 38.710,255.014 40.237 L 255.621 41.455 255.750 73.462 C 255.895 109.090,255.756 106.563,257.570 106.563 C 259.370 106.563,259.245 108.519,259.389 78.270 L 259.519 51.072 260.122 49.942 C 263.066 44.425,270.032 43.306,274.174 47.685 C 276.645 50.299,276.396 45.648,276.543 91.916 C 276.688 137.389,276.536 133.853,278.341 133.853 C 279.262 133.853,279.042 134.082,290.238 121.491 C 296.899 114.000,300.573 110.069,301.413 109.534 C 306.498 106.295,313.686 107.622,316.101 112.246 C 317.586 115.089,317.280 116.007,312.146 124.107 C 310.243 127.109,307.725 131.085,306.550 132.943 C 294.323 152.277,293.841 152.951,288.245 158.561 C 284.516 162.300,280.890 165.284,276.803 167.977 C 272.533 170.792,269.540 175.321,268.867 179.987 C 268.764 180.702,268.573 181.491,268.444 181.741 C 268.143 182.322,213.756 182.462,213.177 181.884 C 212.984 181.691,212.865 180.742,212.865 179.394 C 212.865 174.873,211.385 171.096,207.954 166.862 C 204.832 163.010,200.578 154.783,201.433 154.254 C 201.550 154.181,202.212 154.056,202.902 153.975 C 225.281 151.351,241.628 130.186,238.980 107.265 C 238.642 104.338,238.594 99.252,238.655 72.645 L 238.726 41.455 239.322 40.339 C 241.597 36.079,246.469 34.237,250.613 36.070 M165.808 44.806 C 162.814 45.960,160.836 47.776,159.817 50.306 L 159.194 51.852 159.120 72.255 C 159.032 96.670,158.916 95.613,161.257 91.683 C 164.542 86.170,169.138 81.262,174.204 77.853 L 177.258 75.799 177.258 63.631 L 177.258 51.463 176.473 49.801 C 174.613 45.864,169.398 43.422,165.808 44.806 M223.782 44.876 C 217.838 47.022,217.231 48.869,217.337 64.457 L 217.414 75.763 219.926 77.453 C 226.045 81.568,230.059 85.899,233.974 92.609 C 235.536 95.287,235.503 95.758,235.421 72.289 L 235.348 51.072 234.456 49.428 C 232.369 45.578,227.541 43.519,223.782 44.876 M170.600 45.277 C 173.120 46.013,175.085 47.760,176.278 50.323 C 176.981 51.835,177.374 74.737,176.711 75.537 C 176.539 75.743,175.432 76.543,174.251 77.313 C 169.179 80.619,165.048 84.879,161.571 90.389 C 160.739 91.708,159.951 92.788,159.821 92.788 C 159.456 92.788,159.512 53.113,159.879 51.523 C 160.935 46.950,166.075 43.955,170.600 45.277 M229.957 45.738 C 231.709 46.497,233.878 48.800,234.504 50.565 C 234.993 51.944,235.233 92.788,234.752 92.788 C 234.639 92.788,234.088 92.005,233.528 91.048 C 230.396 85.694,225.731 80.814,220.273 77.182 C 219.129 76.421,218.105 75.673,217.996 75.521 C 217.425 74.720,217.918 51.102,218.530 49.956 C 220.846 45.618,225.617 43.857,229.957 45.738 M185.575 58.376 C 183.620 58.982,181.929 60.469,180.897 62.490 L 179.987 64.272 179.904 68.564 C 179.790 74.459,179.813 74.513,182.066 73.656 C 184.714 72.650,188.607 71.668,191.813 71.197 C 193.743 70.914,195.479 70.626,195.672 70.557 C 196.393 70.300,195.974 63.772,195.145 62.363 C 193.092 58.871,189.205 57.252,185.575 58.376 M204.382 58.350 C 200.367 59.617,198.484 62.729,198.626 67.867 L 198.700 70.565 202.469 71.127 C 206.721 71.761,208.371 72.156,211.625 73.322 C 214.903 74.495,214.740 74.739,214.640 68.811 C 214.558 63.976,214.532 63.764,213.863 62.498 C 212.013 58.991,207.965 57.220,204.382 58.350 M191.405 59.278 C 194.360 60.754,195.567 63.079,195.575 67.314 L 195.582 70.300 192.853 70.602 C 189.567 70.966,186.247 71.722,183.151 72.811 C 181.610 73.354,180.771 73.533,180.595 73.357 C 180.037 72.798,180.438 64.207,181.084 62.898 C 183.007 58.999,187.612 57.384,191.405 59.278 M210.109 59.274 C 211.562 59.999,212.979 61.481,213.665 62.992 C 214.223 64.221,214.431 73.554,213.901 73.554 C 213.755 73.554,212.264 73.096,210.587 72.536 C 207.303 71.440,205.547 71.058,201.689 70.599 L 199.220 70.305 199.233 67.057 C 199.259 60.255,204.527 56.485,210.109 59.274 M191.135 86.284 C 190.318 86.614,190.253 87.372,190.253 96.595 L 190.253 105.016 189.587 105.270 C 189.204 105.415,185.305 105.525,180.425 105.527 C 175.529 105.529,171.765 105.635,171.540 105.777 C 171.003 106.117,170.954 118.296,171.488 118.830 C 171.749 119.091,173.842 119.185,180.700 119.243 C 186.374 119.291,189.692 119.416,189.902 119.590 C 190.150 119.796,190.247 122.035,190.306 128.915 C 190.349 133.895,190.481 138.066,190.599 138.185 C 191.058 138.644,203.405 138.598,203.867 138.136 C 204.239 137.764,204.288 136.683,204.288 128.937 C 204.288 120.763,204.321 120.129,204.764 119.728 C 205.186 119.346,206.211 119.298,213.972 119.298 C 221.564 119.298,222.758 119.245,223.113 118.890 C 223.606 118.397,223.730 106.918,223.253 106.026 C 222.995 105.544,222.618 105.523,214.214 105.523 C 206.697 105.523,205.361 105.465,204.866 105.118 C 204.289 104.714,204.288 104.714,204.288 95.892 C 204.288 87.416,204.268 87.049,203.769 86.550 C 203.208 85.989,192.426 85.763,191.135 86.284 M203.457 86.862 C 203.687 87.092,203.769 89.436,203.769 95.793 C 203.769 104.120,203.787 104.437,204.307 105.098 L 204.846 105.783 213.632 105.783 C 220.770 105.783,222.474 105.850,222.715 106.140 C 222.923 106.391,222.991 108.310,222.942 112.573 L 222.872 118.648 213.849 118.778 C 205.640 118.897,204.784 118.950,204.362 119.372 C 203.940 119.794,203.887 120.649,203.769 128.859 L 203.639 137.882 197.419 137.952 C 192.617 138.005,191.152 137.946,190.990 137.692 C 190.875 137.510,190.779 133.423,190.777 128.609 L 190.773 119.856 190.088 119.317 C 189.427 118.797,189.111 118.778,180.784 118.778 C 174.426 118.778,172.082 118.697,171.852 118.467 C 171.336 117.951,171.419 107.111,171.945 106.361 C 172.349 105.783,172.350 105.783,181.157 105.783 C 189.963 105.783,189.964 105.783,190.369 105.205 C 190.715 104.711,190.773 103.388,190.773 95.997 C 190.773 88.498,190.827 87.313,191.182 86.958 C 191.712 86.428,202.935 86.340,203.457 86.862 M174.139 199.901 C 171.696 200.873,170.288 204.424,171.440 206.706 C 173.982 211.735,181.257 210.111,181.257 204.513 C 181.257 201.158,177.349 198.625,174.139 199.901 M216.374 200.019 C 210.288 203.184,214.697 212.178,220.870 209.189 C 223.697 207.821,224.516 204.060,222.553 201.466 C 221.297 199.806,218.185 199.077,216.374 200.019 M178.033 200.455 C 181.656 202.306,181.796 206.768,178.296 208.819 C 175.019 210.738,170.529 207.263,171.522 203.575 C 172.320 200.612,175.426 199.123,178.033 200.455 M221.192 200.755 C 223.740 202.441,223.915 206.096,221.547 208.175 C 217.761 211.499,212.059 207.077,214.356 202.599 C 215.712 199.956,218.747 199.137,221.192 200.755 " stroke="none" fill="#9b9b9b" fill-rule="evenodd"></path><path id="path4" d="M146.004 31.121 C 146.754 31.173,147.982 31.173,148.733 31.121 C 149.483 31.068,148.869 31.025,147.368 31.025 C 145.867 31.025,145.253 31.068,146.004 31.121 M245.948 31.122 C 246.776 31.173,248.062 31.173,248.807 31.120 C 249.553 31.068,248.876 31.026,247.303 31.026 C 245.731 31.027,245.121 31.070,245.948 31.122 M144.030 35.158 C 142.509 35.741,140.064 37.803,139.370 39.089 C 137.920 41.773,138.012 39.432,138.012 73.717 C 138.012 107.686,138.061 106.433,136.755 105.610 C 136.357 105.359,136.312 103.156,136.192 78.204 C 136.066 51.862,136.047 51.042,135.550 50.032 C 131.517 41.855,121.008 42.237,117.680 50.682 C 117.246 51.784,117.219 54.175,117.219 91.960 C 117.219 132.041,117.197 133.073,116.349 133.073 C 115.859 133.073,115.830 133.042,105.079 120.942 C 95.705 110.392,94.446 109.117,92.303 108.010 C 85.877 104.690,77.002 108.760,77.084 114.989 C 77.110 117.023,77.415 117.624,82.370 125.406 C 84.554 128.837,86.768 132.324,87.290 133.154 C 87.812 133.985,88.778 135.505,89.436 136.533 C 90.094 137.561,91.777 140.214,93.175 142.430 C 101.371 155.419,106.556 161.179,115.758 167.511 C 122.027 171.826,123.804 174.319,125.112 180.639 C 125.356 181.821,125.690 182.706,125.969 182.909 C 126.643 183.402,181.752 183.264,182.248 182.768 C 182.472 182.545,182.636 181.318,182.733 179.130 C 182.959 174.043,183.686 172.221,187.507 167.170 C 191.412 162.007,195.077 154.688,194.198 153.809 C 194.059 153.669,192.676 153.328,191.125 153.049 C 173.708 149.924,161.557 138.551,157.146 121.248 C 156.538 118.860,156.331 116.399,156.403 112.411 C 156.440 110.409,156.530 93.598,156.603 75.051 L 156.736 41.331 156.065 40.005 C 153.764 35.465,148.628 33.397,144.030 35.158 M157.346 35.685 C 157.896 36.357,158.401 36.907,158.468 36.907 C 158.645 36.907,156.999 34.867,156.645 34.649 C 156.480 34.546,156.795 35.012,157.346 35.685 M243.772 35.165 C 240.960 36.346,239.282 38.156,238.178 41.198 L 237.557 42.909 237.557 73.420 C 237.557 100.364,237.605 104.138,237.969 105.702 C 238.461 107.813,238.355 118.091,237.821 120.078 C 237.648 120.721,237.328 121.949,237.109 122.807 C 233.139 138.385,220.257 150.075,203.899 152.945 C 200.872 153.475,200.547 153.605,200.440 154.326 C 200.210 155.862,203.738 162.584,207.171 167.151 C 210.988 172.230,212.086 175.139,212.086 180.182 C 212.086 183.601,208.678 183.236,240.611 183.232 C 272.087 183.228,269.297 183.466,269.595 180.759 C 270.130 175.885,272.907 171.626,277.644 168.411 C 288.031 161.363,293.108 155.785,302.044 141.605 C 304.511 137.691,308.375 131.587,309.420 129.955 C 310.015 129.025,310.960 127.531,311.521 126.634 C 312.082 125.737,312.833 124.543,313.190 123.980 C 313.548 123.418,314.658 121.637,315.658 120.023 L 317.475 117.089 317.465 115.010 C 317.434 108.340,309.092 104.688,301.991 108.236 C 299.939 109.261,300.099 109.092,284.648 126.528 C 281.458 130.128,278.704 133.073,278.527 133.073 C 277.574 133.073,277.583 133.455,277.569 93.060 C 277.554 49.256,277.623 51.072,275.874 48.454 C 271.548 41.977,262.571 42.863,259.178 50.101 L 258.480 51.592 258.350 78.619 C 258.224 104.810,258.205 105.649,257.731 105.740 C 256.821 105.915,256.798 105.158,256.794 74.412 C 256.790 41.462,256.814 42.074,255.424 39.436 C 253.282 35.373,247.940 33.414,243.772 35.165 M150.800 35.582 C 152.736 36.331,154.603 38.037,155.565 39.935 L 156.335 41.455 156.407 73.034 C 156.468 100.101,156.421 105.053,156.082 107.691 C 153.337 129.019,168.488 149.352,189.994 153.203 C 193.703 153.867,193.772 153.896,193.706 154.779 C 193.543 156.961,190.537 162.529,187.078 167.055 C 183.613 171.588,182.597 174.161,182.300 179.154 C 182.149 181.714,182.042 182.260,181.655 182.468 C 181.368 182.621,170.697 182.716,153.772 182.716 C 123.189 182.716,125.536 182.868,125.536 180.891 C 125.536 177.327,122.158 171.514,118.669 169.071 C 112.603 164.824,110.635 163.281,107.325 160.176 C 102.751 155.885,99.508 151.690,93.807 142.690 C 91.769 139.474,89.028 135.146,87.716 133.073 C 86.403 131.001,83.774 126.849,81.872 123.847 C 77.810 117.433,77.466 116.742,77.459 114.966 C 77.431 108.412,87.211 104.953,93.640 109.242 C 94.419 109.762,98.732 114.410,105.206 121.705 C 115.801 133.644,116.124 133.959,116.974 133.190 C 117.459 132.751,117.473 131.751,117.540 92.296 L 117.609 51.852 118.234 50.299 C 121.275 42.748,131.755 42.618,135.060 50.091 L 135.673 51.477 135.673 78.098 C 135.673 107.130,135.615 106.043,137.144 106.043 C 137.621 106.043,138.039 106.014,138.073 105.978 C 138.106 105.942,138.194 91.585,138.268 74.074 L 138.402 42.235 138.995 40.767 C 140.917 36.015,146.070 33.751,150.800 35.582 M249.857 35.332 C 252.510 36.245,254.115 37.650,255.518 40.286 L 256.140 41.455 256.270 73.510 C 256.412 108.581,256.321 106.626,257.790 106.119 C 258.894 105.737,258.869 106.368,258.872 78.768 C 258.875 56.671,258.935 52.173,259.245 51.151 C 261.717 43.006,272.639 42.170,276.239 49.851 L 276.933 51.332 277.067 92.138 C 277.140 114.581,277.228 132.969,277.262 132.999 C 278.398 134.033,278.710 133.808,283.352 128.592 C 285.547 126.125,290.104 121.002,293.479 117.208 C 296.853 113.414,300.038 109.986,300.558 109.590 C 306.811 104.820,317.095 108.093,317.158 114.873 C 317.176 116.860,316.817 117.564,311.510 125.926 C 308.970 129.929,305.355 135.634,303.478 138.606 C 292.774 155.548,288.347 160.597,277.937 167.733 C 272.578 171.407,270.069 175.039,269.292 180.245 C 269.116 181.423,268.863 182.177,268.574 182.389 C 267.921 182.867,213.309 182.869,212.933 182.391 C 212.792 182.212,212.601 180.897,212.509 179.467 C 212.178 174.316,210.882 171.022,207.653 167.122 C 205.395 164.395,202.711 159.774,201.434 156.415 C 200.569 154.140,200.760 153.606,202.438 153.606 C 203.908 153.606,209.354 152.248,212.119 151.193 C 225.358 146.136,235.081 134.660,238.127 120.495 C 238.777 117.472,238.945 107.736,238.385 105.523 C 237.919 103.681,237.963 43.465,238.432 41.706 C 239.758 36.724,245.154 33.714,249.857 35.332 M164.941 44.716 C 162.221 45.846,160.402 47.688,159.335 50.394 C 158.689 52.035,158.481 93.660,159.116 94.295 C 159.687 94.866,160.059 94.620,160.900 93.112 C 164.470 86.715,169.033 81.748,174.975 77.793 C 178.106 75.708,177.838 77.176,177.722 62.755 C 177.615 49.414,177.709 49.991,175.196 47.242 C 172.645 44.450,168.210 43.358,164.941 44.716 M222.814 44.832 C 217.329 47.324,216.764 49.119,216.764 64.037 C 216.764 76.908,216.534 75.739,219.439 77.607 C 225.123 81.262,229.863 86.240,232.981 91.829 C 234.245 94.094,234.920 94.777,235.628 94.505 C 236.161 94.300,236.162 53.968,235.629 51.592 C 234.334 45.824,227.992 42.478,222.814 44.832 M171.860 45.289 C 173.909 46.227,175.536 47.818,176.473 49.801 L 177.258 51.463 177.258 63.631 L 177.258 75.799 174.204 77.853 C 169.138 81.262,164.542 86.170,161.257 91.683 C 158.916 95.613,159.032 96.670,159.120 72.255 L 159.194 51.852 159.817 50.306 C 161.750 45.508,167.294 43.198,171.860 45.289 M230.029 45.306 C 232.081 46.280,233.431 47.538,234.456 49.428 L 235.348 51.072 235.421 72.289 C 235.503 95.758,235.536 95.287,233.974 92.609 C 230.059 85.899,226.045 81.568,219.926 77.453 L 217.414 75.763 217.337 64.457 C 217.250 51.646,217.318 50.949,218.895 48.588 C 221.359 44.898,226.179 43.477,230.029 45.306 M208.512 54.240 C 208.762 54.306,209.172 54.306,209.422 54.240 C 209.672 54.175,209.467 54.121,208.967 54.121 C 208.467 54.121,208.262 54.175,208.512 54.240 M186.485 57.683 C 183.704 58.359,181.546 60.075,180.385 62.532 L 179.597 64.199 179.597 69.105 C 179.597 75.518,179.104 75.118,184.665 73.221 C 187.109 72.388,188.705 72.009,191.033 71.708 C 196.959 70.942,196.583 71.255,196.440 67.195 C 196.207 60.634,191.773 56.397,186.485 57.683 M204.418 57.928 C 200.102 59.486,198.344 62.072,198.124 67.186 C 197.954 71.156,197.696 70.955,203.969 71.736 C 205.008 71.865,205.974 72.042,206.114 72.129 C 206.254 72.215,206.924 72.384,207.603 72.504 C 208.915 72.735,209.748 73.005,212.168 73.983 C 215.145 75.186,215.205 75.099,215.205 69.514 C 215.205 62.170,213.752 59.488,208.938 57.950 C 206.982 57.326,206.098 57.321,204.418 57.928 M190.677 58.515 C 192.393 59.157,194.149 60.669,195.145 62.363 C 195.974 63.772,196.393 70.300,195.672 70.557 C 195.479 70.626,193.743 70.914,191.813 71.197 C 188.607 71.668,184.714 72.650,182.066 73.656 C 179.813 74.513,179.790 74.459,179.904 68.564 L 179.987 64.272 180.897 62.490 C 182.818 58.728,186.858 57.086,190.677 58.515 M209.391 58.515 C 213.418 60.021,214.527 62.199,214.640 68.811 C 214.740 74.739,214.903 74.495,211.625 73.322 C 208.371 72.156,206.721 71.761,202.469 71.127 L 198.700 70.565 198.626 67.867 C 198.428 60.692,203.480 56.303,209.391 58.515 M223.002 82.992 C 223.002 83.037,223.382 83.417,223.847 83.837 L 224.691 84.600 223.928 83.756 C 223.216 82.968,223.002 82.792,223.002 82.992 M193.454 83.625 C 195.714 83.669,199.340 83.669,201.511 83.625 C 203.682 83.582,201.832 83.546,197.401 83.546 C 192.969 83.546,191.193 83.582,193.454 83.625 M190.402 86.178 C 190.046 86.534,189.994 87.756,189.994 95.637 C 189.994 103.650,189.946 104.706,189.582 104.845 C 189.356 104.932,185.289 105.003,180.543 105.003 C 173.155 105.003,171.833 105.061,171.338 105.408 C 170.571 105.945,170.418 118.399,171.169 119.150 C 171.524 119.505,172.715 119.558,180.283 119.558 C 185.786 119.558,189.173 119.657,189.491 119.827 C 189.973 120.085,189.994 120.464,189.994 129.035 C 189.994 136.815,190.046 138.028,190.402 138.383 C 190.957 138.939,203.790 139.002,204.247 138.452 C 204.434 138.227,204.554 135.114,204.603 129.204 C 204.675 120.732,204.703 120.277,205.183 119.927 C 205.594 119.626,207.278 119.558,214.326 119.558 C 221.833 119.558,223.018 119.505,223.373 119.150 C 223.986 118.537,223.986 106.024,223.373 105.412 C 223.018 105.056,221.804 105.003,214.010 105.003 L 205.055 105.003 204.802 104.337 C 204.656 103.952,204.548 100.000,204.548 94.989 C 204.548 86.672,204.527 86.297,204.046 86.039 C 203.151 85.560,190.895 85.685,190.402 86.178 M203.769 86.550 C 204.268 87.049,204.288 87.416,204.288 95.892 C 204.288 104.714,204.289 104.714,204.866 105.118 C 205.361 105.465,206.697 105.523,214.214 105.523 C 222.618 105.523,222.995 105.544,223.253 106.026 C 223.730 106.918,223.606 118.397,223.113 118.890 C 222.758 119.245,221.564 119.298,213.972 119.298 C 206.211 119.298,205.186 119.346,204.764 119.728 C 204.321 120.129,204.288 120.763,204.288 128.937 C 204.288 136.683,204.239 137.764,203.867 138.136 C 203.405 138.598,191.058 138.644,190.599 138.185 C 190.481 138.066,190.349 133.895,190.306 128.915 C 190.247 122.035,190.150 119.796,189.902 119.590 C 189.692 119.416,186.374 119.291,180.700 119.243 C 173.842 119.185,171.749 119.091,171.488 118.830 C 170.954 118.296,171.003 106.117,171.540 105.777 C 171.765 105.635,175.529 105.529,180.425 105.527 C 185.305 105.525,189.204 105.415,189.587 105.270 L 190.253 105.016 190.253 96.595 C 190.253 87.372,190.318 86.614,191.135 86.284 C 192.426 85.763,203.208 85.989,203.769 86.550 M310.851 103.834 C 311.209 104.038,311.618 104.205,311.761 104.205 C 311.904 104.205,311.728 104.038,311.371 103.834 C 311.014 103.629,310.604 103.462,310.461 103.462 C 310.318 103.462,310.494 103.629,310.851 103.834 M90.670 104.029 C 90.801 104.160,91.185 104.224,91.523 104.171 C 92.043 104.089,92.007 104.052,91.285 103.933 C 90.768 103.847,90.526 103.885,90.670 104.029 M225.977 112.411 C 225.977 117.128,226.012 119.094,226.055 116.781 C 226.098 114.467,226.098 110.607,226.056 108.204 C 226.013 105.800,225.977 107.693,225.977 112.411 M168.537 112.411 C 168.537 116.842,168.572 118.692,168.615 116.520 C 168.659 114.349,168.659 110.724,168.616 108.463 C 168.572 106.203,168.537 107.979,168.537 112.411 M158.345 109.162 C 158.345 109.662,158.398 109.867,158.464 109.617 C 158.529 109.366,158.529 108.957,158.464 108.707 C 158.398 108.457,158.345 108.661,158.345 109.162 M321.048 114.100 C 321.048 114.600,321.101 114.805,321.167 114.555 C 321.232 114.305,321.232 113.895,321.167 113.645 C 321.101 113.395,321.048 113.600,321.048 114.100 M158.345 115.400 C 158.345 115.900,158.398 116.105,158.464 115.854 C 158.529 115.604,158.529 115.195,158.464 114.945 C 158.398 114.695,158.345 114.899,158.345 115.400 M173.927 121.832 C 176.313 121.875,180.289 121.875,182.764 121.832 C 185.239 121.789,183.288 121.754,178.428 121.754 C 173.567 121.754,171.542 121.789,173.927 121.832 M211.891 121.832 C 214.285 121.875,218.203 121.875,220.598 121.832 C 222.992 121.789,221.033 121.754,216.244 121.754 C 211.455 121.754,209.496 121.789,211.891 121.832 M169.721 139.961 C 170.642 140.890,171.453 141.650,171.525 141.650 C 171.596 141.650,170.901 140.890,169.981 139.961 C 169.060 139.032,168.248 138.272,168.176 138.272 C 168.105 138.272,168.800 139.032,169.721 139.961 M90.969 145.701 C 90.970 145.832,91.272 146.290,91.641 146.719 L 92.311 147.498 91.724 146.589 C 90.971 145.422,90.968 145.419,90.969 145.701 M99.025 157.326 C 99.025 157.371,99.405 157.751,99.870 158.171 L 100.715 158.934 99.951 158.090 C 99.240 157.302,99.025 157.125,99.025 157.326 M103.704 162.313 C 104.189 162.814,104.644 163.223,104.715 163.223 C 104.787 163.223,104.449 162.814,103.964 162.313 C 103.479 161.813,103.023 161.404,102.952 161.404 C 102.880 161.404,103.219 161.813,103.704 162.313 M272.988 180.767 C 273.037 181.252,273.236 181.287,276.027 181.299 L 279.012 181.311 276.106 181.226 C 273.628 181.153,273.180 181.075,273.067 180.694 C 272.968 180.359,272.948 180.378,272.988 180.767 M116.904 181.349 C 117.803 181.400,119.207 181.400,120.023 181.348 C 120.840 181.297,120.104 181.255,118.389 181.256 C 116.673 181.256,116.005 181.298,116.904 181.349 M187.968 181.349 C 188.926 181.399,190.564 181.399,191.607 181.350 C 192.649 181.300,191.865 181.260,189.864 181.259 C 187.862 181.259,187.009 181.299,187.968 181.349 M202.924 181.350 C 203.960 181.399,205.656 181.399,206.693 181.350 C 207.729 181.300,206.881 181.260,204.808 181.260 C 202.736 181.260,201.888 181.300,202.924 181.350 M136.257 185.250 C 146.228 185.288,162.544 185.288,172.515 185.250 C 182.485 185.212,174.327 185.182,154.386 185.182 C 134.444 185.182,126.287 185.212,136.257 185.250 M222.027 185.250 C 231.998 185.288,248.314 185.288,258.285 185.250 C 268.255 185.212,260.097 185.182,240.156 185.182 C 220.214 185.182,212.057 185.212,222.027 185.250 M203.372 204.678 C 203.372 214.971,203.404 219.143,203.444 213.951 C 203.483 208.759,203.483 200.337,203.444 195.238 C 203.404 190.138,203.372 194.386,203.372 204.678 M174.352 199.399 C 172.281 199.950,170.654 202.269,170.648 204.678 C 170.634 209.862,177.487 212.131,180.569 207.963 C 183.788 203.610,179.698 197.976,174.352 199.399 M217.056 199.338 C 213.893 200.130,212.111 204.151,213.620 207.093 C 215.474 210.708,220.490 211.255,222.845 208.098 C 226.079 203.761,222.291 198.029,217.056 199.338 M178.582 200.215 C 183.043 202.571,181.561 209.329,176.502 209.695 C 171.611 210.048,169.156 204.266,172.751 200.860 C 174.239 199.450,176.631 199.185,178.582 200.215 M220.823 200.107 C 224.527 201.789,224.556 207.405,220.870 209.189 C 217.538 210.803,213.748 208.661,213.444 204.993 C 213.123 201.120,217.163 198.445,220.823 200.107 " stroke="none" fill="#7c7c7c" fill-rule="evenodd"></path></g></svg>